<?xml version="1.0" encoding="UTF-8"?>
<!DOCTYPE svg PUBLIC "-//W3C//DTD SVG 1.1//EN" "http://www.w3.org/Graphics/SVG/1.1/DTD/svg11.dtd">
<!-- Creator: CorelDRAW 2017 -->
<svg xmlns="http://www.w3.org/2000/svg" xml:space="preserve" width="300px" height="100px" version="1.1" style="shape-rendering:geometricPrecision; text-rendering:geometricPrecision; image-rendering:optimizeQuality; fill-rule:evenodd; clip-rule:evenodd"
viewBox="0 0 300 100"
 xmlns:xlink="http://www.w3.org/1999/xlink">
 <defs>
  <style type="text/css">
   <![CDATA[
    .fil0 {fill:white;fill-rule:nonzero}
   ]]>
  </style>
 </defs>
 <g id="Layer_x0020_1">
  <metadata id="CorelCorpID_0Corel-Layer"/>
  <path class="fil0" d="M280.35 33.05l-6.27 20.2 -7.27 -20.27c-0.38,-1 -1.07,-1.53 -2.14,-1.53l-8.26 0c-1.38,0 -1.99,0.92 -1.53,2.22l13.46 35.42 -4.59 13.77c-0.46,1.38 0.23,2.14 1.61,2.14l8.26 0c1.07,0 1.91,-0.46 2.22,-1.53l16.52 -49.88c0.46,-1.38 -0.23,-2.14 -1.6,-2.14l-8.27 0c-1.07,0 -1.83,0.53 -2.14,1.6z"/>
  <path class="fil0" d="M235.67 30.38c-7.8,0 -14.84,4.2 -15.83,12.47 -0.08,1.3 0.69,1.99 1.91,1.99l7.5 0c1.15,0 1.53,-0.62 1.99,-1.69 0.61,-1.3 2.06,-2.22 4.43,-2.22 3.22,0 4.75,1.69 4.75,5.44l0 3.45c-2.06,-1.57 -5.06,-2.92 -9.87,-2.92 -6.73,0 -12.62,3.98 -12.62,11.94 0,7.95 5.89,11.93 12.62,11.93 4.81,0 7.81,-1.67 9.87,-4.08l0 1.1c0,1.22 0.69,1.91 1.91,1.91l7.34 0c1.23,0 1.92,-0.69 1.92,-1.91l0 -22.19c0,-10.33 -7.5,-15.22 -15.92,-15.22l0 0zm-1.07 32.28c-3.51,0 -5.2,-1.61 -5.2,-3.82 0,-2.22 1.69,-3.83 5.2,-3.83 3.75,0 5.82,1.45 5.82,3.83 0,2.21 -2.07,3.82 -5.82,3.82z"/>
  <path class="fil0" d="M195.82 30.38c-5.12,0 -8.84,1.72 -11.4,4.64l0 -1.66c0,-1.22 -0.69,-1.91 -1.91,-1.91l-7.65 0c-1.23,0 -1.92,0.69 -1.92,1.91l0 49.73c0,1.22 0.69,1.91 1.92,1.91l7.65 0c1.22,0 1.91,-0.69 1.91,-1.91l0 -16.96c2.56,2.92 6.28,4.64 11.4,4.64 10.02,0 18.28,-8.8 18.28,-20.2 0,-11.4 -8.26,-20.19 -18.28,-20.19zm-2.3 29.53c-5.28,0 -9.1,-3.6 -9.1,-9.34 0,-5.73 3.82,-9.33 9.1,-9.33 5.28,0 9.11,3.6 9.11,9.33 0,5.74 -3.83,9.34 -9.11,9.34z"/>
  <path class="fil0" d="M156.04 33.05l-6.28 20.2 -7.27 -20.27c-0.38,-1 -1.07,-1.53 -2.14,-1.53l-8.26 0c-1.38,0 -1.99,0.92 -1.53,2.22l13.46 35.42 -4.59 13.77c-0.46,1.38 0.23,2.14 1.61,2.14l8.26 0c1.07,0 1.91,-0.46 2.22,-1.53l16.53 -49.88c0.46,-1.38 -0.23,-2.14 -1.61,-2.14l-8.26 0c-1.07,0 -1.84,0.53 -2.14,1.6z"/>
  <path class="fil0" d="M127.73 26.02c1.3,0 1.99,-0.62 1.99,-1.84l0 -7.19c0,-1.23 -0.69,-1.99 -1.91,-1.99 -11.4,0 -16.68,6.27 -16.68,16.45l-3.22 0c-1.22,0 -1.91,0.69 -1.91,1.91l0 7.19c0,1.23 0.69,1.91 1.91,1.91l3.22 0 0 25.33c0,1.22 0.69,1.91 1.91,1.91l7.65 0c1.22,0 1.91,-0.69 1.91,-1.91l0 -25.33 5.21 0c1.22,0 1.91,-0.68 1.91,-1.91l0 -7.19c0,-1.22 -0.69,-1.91 -1.91,-1.91l-5.21 0c0,-3.68 1.99,-5.43 5.13,-5.43z"/>
  <path class="fil0" d="M92.23 69.7l7.65 0c1.23,0 1.91,-0.69 1.91,-1.91l0 -34.43c0,-1.22 -0.68,-1.91 -1.91,-1.91l-7.65 0c-1.22,0 -1.91,0.69 -1.91,1.91l0 34.43c0,1.22 0.69,1.91 1.91,1.91z"/>
  <path class="fil0" d="M92.23 26.86l7.65 0c1.23,0 1.91,-0.69 1.91,-1.92l0 -6.88c0,-1.22 -0.68,-1.91 -1.91,-1.91l-7.65 0c-1.22,0 -1.91,0.69 -1.91,1.91l0 6.88c0,1.23 0.69,1.92 1.91,1.92z"/>
  <path class="fil0" d="M70.66 30.38c-4.9,0 -8.15,1.91 -9.95,4.56l0 -1.58c0,-1.22 -0.69,-1.91 -1.91,-1.91l-7.65 0c-1.22,0 -1.91,0.69 -1.91,1.91l0 34.43c0,1.22 0.69,1.91 1.91,1.91l7.65 0c1.22,0 1.91,-0.69 1.91,-1.91l0 -20.43c0,-4.51 2.14,-6.43 5.59,-6.43 2.9,0 5.12,1.69 5.12,5.51l0 21.35c0,1.22 0.69,1.91 1.92,1.91l7.65 0c1.22,0 1.91,-0.69 1.91,-1.91l0 -22.34c0,-9.56 -5.13,-15.07 -12.24,-15.07z"/>
  <path class="fil0" d="M38.91 31.45l-7.65 0c-1.22,0 -1.91,0.69 -1.91,1.91l0 20.43c0,4.51 -2.15,6.42 -5.59,6.42 -2.91,0 -5.12,-1.68 -5.12,-5.51l0 -21.34c0,-1.22 -0.69,-1.91 -1.92,-1.91l-7.65 0c-1.22,0 -1.91,0.69 -1.91,1.91l0 22.34c0,9.56 5.13,15.07 12.24,15.07 4.9,0 8.15,-1.91 9.95,-4.56l0 1.58c0,1.22 0.69,1.91 1.91,1.91l7.65 0c1.22,0 1.91,-0.69 1.91,-1.91l0 -34.43c0,-1.22 -0.69,-1.91 -1.91,-1.91z"/>
 </g>
</svg>
