<?xml version="1.0" encoding="UTF-8"?>
<!DOCTYPE svg PUBLIC "-//W3C//DTD SVG 1.1//EN" "http://www.w3.org/Graphics/SVG/1.1/DTD/svg11.dtd">
<!-- Creator: CorelDRAW 2017 -->
<svg xmlns="http://www.w3.org/2000/svg" xml:space="preserve" width="135px" height="35px" version="1.1" style="shape-rendering:geometricPrecision; text-rendering:geometricPrecision; image-rendering:optimizeQuality; fill-rule:evenodd; clip-rule:evenodd"
viewBox="0 0 135 35"
 xmlns:xlink="http://www.w3.org/1999/xlink">
 <defs>
  <style type="text/css">
   <![CDATA[
    .fil0 {fill:white;fill-rule:nonzero}
   ]]>
  </style>
 </defs>
 <g id="Layer_x0020_1">
  <metadata id="CorelCorpID_0Corel-Layer"/>
  <g id="_938044608">
   <path class="fil0" d="M126.96 9.78l-2.85 9.2 -3.31 -9.24c-0.18,-0.45 -0.49,-0.69 -0.98,-0.69l-3.76 0c-0.63,0 -0.91,0.42 -0.7,1.01l6.13 16.14 -2.09 6.27c-0.21,0.63 0.11,0.98 0.73,0.98l3.77 0c0.49,0 0.87,-0.21 1.01,-0.7l7.53 -22.73c0.21,-0.62 -0.11,-0.97 -0.74,-0.97l-3.76 0c-0.49,0 -0.84,0.24 -0.98,0.73z"/>
   <path class="fil0" d="M106.61 8.56c-3.56,0 -6.76,1.92 -7.21,5.68 -0.04,0.59 0.31,0.91 0.87,0.91l3.41 0c0.52,0 0.7,-0.28 0.91,-0.77 0.28,-0.59 0.94,-1.01 2.02,-1.01 1.46,0 2.16,0.77 2.16,2.47l0 1.58c-0.93,-0.72 -2.31,-1.33 -4.5,-1.33 -3.06,0 -5.75,1.81 -5.75,5.44 0,3.62 2.69,5.43 5.75,5.43 2.19,0 3.57,-0.76 4.5,-1.86l0 0.5c0,0.56 0.31,0.87 0.87,0.87l3.35 0c0.56,0 0.87,-0.31 0.87,-0.87l0 -10.1c0,-4.71 -3.42,-6.94 -7.25,-6.94l0 0zm-0.49 14.71c-1.6,0 -2.37,-0.73 -2.37,-1.74 0,-1.02 0.77,-1.75 2.37,-1.75 1.71,0 2.65,0.66 2.65,1.75 0,1.01 -0.94,1.74 -2.65,1.74z"/>
   <path class="fil0" d="M88.45 8.56c-2.33,0 -4.03,0.78 -5.19,2.11l0 -0.75c0,-0.56 -0.32,-0.87 -0.87,-0.87l-3.49 0c-0.56,0 -0.87,0.31 -0.87,0.87l0 22.65c0,0.56 0.31,0.88 0.87,0.88l3.49 0c0.55,0 0.87,-0.32 0.87,-0.88l0 -7.72c1.16,1.33 2.86,2.11 5.19,2.11 4.57,0 8.33,-4.01 8.33,-9.2 0,-5.19 -3.76,-9.2 -8.33,-9.2zm-1.05 13.45c-2.4,0 -4.14,-1.64 -4.14,-4.25 0,-2.61 1.74,-4.25 4.14,-4.25 2.41,0 4.15,1.64 4.15,4.25 0,2.61 -1.74,4.25 -4.15,4.25z"/>
   <path class="fil0" d="M70.33 9.78l-2.86 9.2 -3.31 -9.24c-0.18,-0.45 -0.49,-0.69 -0.98,-0.69l-3.76 0c-0.63,0 -0.91,0.42 -0.7,1.01l6.13 16.14 -2.09 6.27c-0.21,0.63 0.11,0.98 0.73,0.98l3.77 0c0.49,0 0.87,-0.21 1.01,-0.7l7.53 -22.73c0.21,-0.62 -0.11,-0.97 -0.73,-0.97l-3.77 0c-0.49,0 -0.84,0.24 -0.97,0.73z"/>
   <path class="fil0" d="M57.43 6.57c0.59,0 0.91,-0.28 0.91,-0.83l0 -3.28c0,-0.56 -0.32,-0.91 -0.88,-0.91 -5.19,0 -7.59,2.86 -7.59,7.5l-1.47 0c-0.56,0 -0.87,0.31 -0.87,0.87l0 3.27c0,0.56 0.31,0.88 0.87,0.88l1.47 0 0 11.53c0,0.56 0.31,0.87 0.87,0.87l3.48 0c0.56,0 0.87,-0.31 0.87,-0.87l0 -11.53 2.37 0c0.56,0 0.88,-0.32 0.88,-0.88l0 -3.27c0,-0.56 -0.32,-0.87 -0.88,-0.87l-2.37 0c0,-1.68 0.91,-2.48 2.34,-2.48z"/>
   <path class="fil0" d="M41.26 26.47l3.48 0c0.56,0 0.87,-0.31 0.87,-0.87l0 -15.68c0,-0.56 -0.31,-0.87 -0.87,-0.87l-3.48 0c-0.56,0 -0.88,0.31 -0.88,0.87l0 15.68c0,0.56 0.32,0.87 0.88,0.87z"/>
   <path class="fil0" d="M41.26 6.96l3.48 0c0.56,0 0.87,-0.32 0.87,-0.88l0 -3.13c0,-0.56 -0.31,-0.87 -0.87,-0.87l-3.48 0c-0.56,0 -0.88,0.31 -0.88,0.87l0 3.13c0,0.56 0.32,0.88 0.88,0.88z"/>
   <path class="fil0" d="M31.43 8.56c-2.23,0 -3.71,0.87 -4.53,2.08l0 -0.72c0,-0.56 -0.32,-0.87 -0.88,-0.87l-3.48 0c-0.56,0 -0.87,0.31 -0.87,0.87l0 15.68c0,0.56 0.31,0.87 0.87,0.87l3.48 0c0.56,0 0.88,-0.31 0.88,-0.87l0 -9.3c0,-2.06 0.97,-2.93 2.54,-2.93 1.33,0 2.34,0.77 2.34,2.51l0 9.72c0,0.56 0.31,0.87 0.87,0.87l3.48 0c0.56,0 0.87,-0.31 0.87,-0.87l0 -10.17c0,-4.36 -2.33,-6.87 -5.57,-6.87z"/>
   <path class="fil0" d="M16.96 9.05l-3.48 0c-0.56,0 -0.87,0.31 -0.87,0.87l0 9.3c0,2.06 -0.98,2.93 -2.55,2.93 -1.32,0 -2.33,-0.76 -2.33,-2.51l0 -9.72c0,-0.56 -0.32,-0.87 -0.87,-0.87l-3.49 0c-0.56,0 -0.87,0.31 -0.87,0.87l0 10.18c0,4.35 2.33,6.86 5.58,6.86 2.23,0 3.71,-0.87 4.53,-2.08l0 0.72c0,0.56 0.31,0.87 0.87,0.87l3.48 0c0.56,0 0.87,-0.31 0.87,-0.87l0 -15.68c0,-0.56 -0.31,-0.87 -0.87,-0.87z"/>
  </g>
 </g>
</svg>
