<?xml version="1.0" encoding="UTF-8"?>
<!DOCTYPE svg PUBLIC "-//W3C//DTD SVG 1.1//EN" "http://www.w3.org/Graphics/SVG/1.1/DTD/svg11.dtd">
<!-- Creator: CorelDRAW 2017 -->
<svg xmlns="http://www.w3.org/2000/svg" xml:space="preserve" width="300px" height="250px" version="1.1" style="shape-rendering:geometricPrecision; text-rendering:geometricPrecision; image-rendering:optimizeQuality; fill-rule:evenodd; clip-rule:evenodd"
viewBox="0 0 300 250"
 xmlns:xlink="http://www.w3.org/1999/xlink">
 <defs>
  <style type="text/css">
   <![CDATA[
    .fil1 {fill:#1ABC9C}
    .fil0 {fill:#212121}
    .fil2 {fill:white}
    .fil3 {fill:white}
    .fil4 {fill:white;fill-rule:nonzero}
   ]]>
  </style>
 </defs>
 <g id="Layer_x0020_1">
  <metadata id="CorelCorpID_0Corel-Layer"/>
  <rect class="fil0" y="5" width="240" height="240" rx="120" ry="120"/>
  <g id="_990063944">
   <path id="Oval-356_1_" class="fil1" d="M293.7 186.01c0,-31.07 -25.19,-56.25 -56.25,-56.25 -31.07,0 -56.25,25.18 -56.25,56.25 0,31.06 25.18,56.25 56.25,56.25 31.06,0 56.25,-25.19 56.25,-56.25z"/>
   <path class="fil2" d="M237.45 246.01c-33,0 -60,-27 -60,-60 0,-33 27,-60 60,-60 33,0 60,27 60,60 0,33 -27,60 -60,60zm0 -112.5c-28.88,0 -52.5,23.62 -52.5,52.5 0,28.87 23.62,52.5 52.5,52.5 28.87,0 52.5,-23.63 52.5,-52.5 0,-28.88 -23.63,-52.5 -52.5,-52.5z"/>
  </g>
  <path id="Shape_3_" class="fil2" d="M262.57 181.13l-20.25 0 0 -20.25c0,-2.62 -2.25,-4.87 -4.87,-4.87 -2.63,0 -4.88,2.25 -4.88,4.87l0 20.25 -20.25 0c-2.62,0 -4.87,2.25 -4.87,4.88 0,2.63 2.25,4.88 4.87,4.88l20.25 -0.01 0 20.25c0,2.63 2.25,4.88 4.88,4.88 2.62,0 4.87,-2.25 4.87,-4.88l0 -20.25 20.25 0c2.63,0 4.88,-2.25 4.88,-4.87 0,-2.63 -2.25,-4.88 -4.88,-4.88l0 0z"/>
  <g id="_990063848">
   <rect class="fil3" transform="matrix(4.00888E-14 -0.50189 1.51367 1.32923E-14 127.847 116.427)" width="24.37" height="38.28" rx="3.85" ry="3.85"/>
   <path class="fil4" d="M116.56 197.81c27.17,0 49,-15.57 49,-44.5l0 -93.77c0,-2.73 -1.5,-4.23 -4.23,-4.23l-10 0c-2.77,0 -4.27,1.5 -4.27,4.23l0 93.07c0,17.8 -11.6,27.2 -30.5,27.2 -18.9,0 -30.5,-9.4 -30.5,-27.2l0 -93.07c0,-2.73 -1.5,-4.23 -4.23,-4.23l-10 0c-2.77,0 -4.27,1.5 -4.27,4.23l0 93.77c0,28.93 21.87,44.5 49,44.5z"/>
   <rect class="fil3" transform="matrix(4.00888E-14 -0.50189 1.51367 1.32923E-14 127.847 96.4287)" width="24.37" height="38.28" rx="3.85" ry="3.85"/>
  </g>
 </g>
</svg>
