<?xml version="1.0" encoding="UTF-8"?>
<!DOCTYPE svg PUBLIC "-//W3C//DTD SVG 1.1//EN" "http://www.w3.org/Graphics/SVG/1.1/DTD/svg11.dtd">
<!-- Creator: CorelDRAW 2017 -->
<svg xmlns="http://www.w3.org/2000/svg" xml:space="preserve" width="160px" height="160px" version="1.1" style="shape-rendering:geometricPrecision; text-rendering:geometricPrecision; image-rendering:optimizeQuality; fill-rule:evenodd; clip-rule:evenodd"
viewBox="0 0 160 160"
 xmlns:xlink="http://www.w3.org/1999/xlink">
 <defs>
  <style type="text/css">
   <![CDATA[
    .fil0 {fill:#212121}
    .fil1 {fill:white}
    .fil2 {fill:white;fill-rule:nonzero}
   ]]>
  </style>
 </defs>
 <g id="Layer_x0020_1">
  <metadata id="CorelCorpID_0Corel-Layer"/>
  <rect class="fil0" x="0.5" y="0.5" width="159" height="159" rx="79.5" ry="79.5"/>
  <rect class="fil1" transform="matrix(2.65587E-14 -0.332501 1.0028 8.80613E-15 87.6772 72.9873)" width="24.37" height="38.28" rx="3.85" ry="3.85"/>
  <path class="fil2" d="M80 127.2c18,0 32.46,-10.31 32.46,-29.48l0 -62.12c0,-1.81 -0.99,-2.8 -2.8,-2.8l-6.63 0c-1.83,0 -2.82,0.99 -2.82,2.8l0 61.66c0,11.79 -7.69,18.02 -20.21,18.02 -12.52,0 -20.21,-6.23 -20.21,-18.02l0 -61.66c0,-1.81 -0.99,-2.8 -2.8,-2.8l-6.63 0c-1.83,0 -2.82,0.99 -2.82,2.8l0 62.12c0,19.17 14.48,29.48 32.46,29.48z"/>
  <rect class="fil1" transform="matrix(2.65587E-14 -0.332501 1.0028 8.80613E-15 87.6772 59.9072)" width="24.37" height="38.28" rx="3.85" ry="3.85"/>
 </g>
</svg>
