<?xml version="1.0" encoding="UTF-8"?>
<!DOCTYPE svg PUBLIC "-//W3C//DTD SVG 1.1//EN" "http://www.w3.org/Graphics/SVG/1.1/DTD/svg11.dtd">
<!-- Creator: CorelDRAW 2017 -->
<svg xmlns="http://www.w3.org/2000/svg" xml:space="preserve" width="157px" height="157px" version="1.1" style="shape-rendering:geometricPrecision; text-rendering:geometricPrecision; image-rendering:optimizeQuality; fill-rule:evenodd; clip-rule:evenodd"
viewBox="0 0 157 157"
 xmlns:xlink="http://www.w3.org/1999/xlink">
 <defs>
  <style type="text/css">
   <![CDATA[
    .fil1 {fill:#FEFEFE}
    .fil0 {fill:#212121}
    .fil2 {fill:#2196F3}
   ]]>
  </style>
 </defs>
 <g id="Layer_x0020_1">
  <metadata id="CorelCorpID_0Corel-Layer"/>
  <rect class="fil0" width="157" height="157" rx="78.5" ry="78.5"/>
  <g id="_983841384">
   <path class="fil1" d="M119.01 78.02l0 29.5c0,0.77 -0.22,1.37 -0.63,1.79 -0.42,0.41 -1.02,0.63 -1.79,0.63l-6.84 0c-0.63,0 -1.21,-0.12 -1.72,-0.38 -0.49,-0.25 -0.91,-0.63 -1.23,-1.14l-21.49 -33.63 0 15.29c0,0.53 -0.02,1.05 -0.05,1.56 -0.37,6.15 -2.96,10.92 -6.97,14.2 -4.31,3.54 -10.26,5.37 -16.84,5.37 -6.87,0 -13.05,-1.99 -17.39,-5.84 -4.02,-3.55 -6.47,-8.68 -6.47,-15.29l0 -41.86c0,-0.77 0.22,-1.38 0.63,-1.79 0.42,-0.42 1.02,-0.64 1.79,-0.64l10.04 0c0.77,0 1.37,0.22 1.79,0.64 0.41,0.41 0.63,1.02 0.63,1.79l0 40.59c0,2.38 0.56,4.35 1.95,5.72 1.4,1.38 3.65,2.16 7.03,2.16 3.1,0 5.26,-0.66 6.67,-1.84 1.4,-1.16 2.09,-2.85 2.26,-4.9l0 -41.72c0,-0.62 0.14,-1.14 0.42,-1.53 0.27,-0.4 0.68,-0.67 1.21,-0.81l0.38 -0.06 0.41 -0.03 6.85 0c0.63,0 1.21,0.13 1.71,0.39 0.49,0.25 0.91,0.63 1.23,1.14l21.54 33.7 0 -3.01 0.01 0 0 -7.75c0,-0.77 0.22,-1.38 0.63,-1.8 0.42,-0.41 1.03,-0.64 1.79,-0.64l10.04 0c0.77,0 1.37,0.23 1.79,0.64 0.4,0.41 0.62,0.99 0.63,1.73 0.05,2.59 0,5.23 0,7.82l-0.01 0z"/>
   <rect class="fil2" x="103.77" y="45.79" width="15.64" height="14.66" rx="2.75" ry="2.53"/>
  </g>
 </g>
</svg>
