<?xml version="1.0" encoding="UTF-8"?>
<!DOCTYPE svg PUBLIC "-//W3C//DTD SVG 1.1//EN" "http://www.w3.org/Graphics/SVG/1.1/DTD/svg11.dtd">
<!-- Creator: CorelDRAW 2017 -->
<svg xmlns="http://www.w3.org/2000/svg" xml:space="preserve" width="65px" height="80px" version="1.1" style="shape-rendering:geometricPrecision; text-rendering:geometricPrecision; image-rendering:optimizeQuality; fill-rule:evenodd; clip-rule:evenodd"
viewBox="0 0 65 80"
 xmlns:xlink="http://www.w3.org/1999/xlink">
 <defs>
  <style type="text/css">
   <![CDATA[
    .fil0 {fill:white}
    .fil1 {fill:white;fill-rule:nonzero}
   ]]>
  </style>
 </defs>
 <g id="Layer_x0020_1">
  <metadata id="CorelCorpID_0Corel-Layer"/>
  <g id="_985755824">
   <rect class="fil0" transform="matrix(2.19838E-14 -0.275227 0.830063 7.28926E-15 33.2254 34.1953)" width="24.37" height="38.28" rx="3.85" ry="3.85"/>
   <path class="fil1" d="M26.87 79.07c14.9,0 26.87,-8.53 26.87,-24.4l0 -51.42c0,-1.5 -0.82,-2.32 -2.32,-2.32l-5.48 0c-1.52,0 -2.34,0.82 -2.34,2.32l0 51.04c0,9.76 -6.36,14.91 -16.73,14.91 -10.36,0 -16.73,-5.15 -16.73,-14.91l0 -51.04c0,-1.5 -0.82,-2.32 -2.32,-2.32l-5.48 0c-1.52,0 -2.34,0.82 -2.34,2.32l0 51.42c0,15.87 11.99,24.4 26.87,24.4z"/>
   <rect class="fil0" transform="matrix(2.19838E-14 -0.275227 0.830063 7.28926E-15 33.2254 23.3681)" width="24.37" height="38.28" rx="3.85" ry="3.85"/>
  </g>
 </g>
</svg>
