<?xml version="1.0" encoding="UTF-8"?>
<!DOCTYPE svg PUBLIC "-//W3C//DTD SVG 1.1//EN" "http://www.w3.org/Graphics/SVG/1.1/DTD/svg11.dtd">
<!-- Creator: CorelDRAW 2017 -->
<svg id="Bitcoin_Symbol" xmlns="http://www.w3.org/2000/svg" xml:space="preserve" version="1.1" style="shape-rendering:geometricPrecision; text-rendering:geometricPrecision; image-rendering:optimizeQuality; fill-rule:evenodd; clip-rule:evenodd"
viewBox="0 0 35 42"
 xmlns:xlink="http://www.w3.org/1999/xlink">
 <defs>
  <style type="text/css">
   <![CDATA[
    .fil0 {fill:#757575}
    .fil1 {fill:#757575;fill-rule:nonzero}
   ]]>
  </style>
 </defs>
 <g id="Layer_x0020_1">
  <metadata id="CorelCorpID_0Corel-Layer"/>
  <g id="_989471376">
   <rect class="fil0" transform="matrix(1.1499E-14 -0.143962 0.434179 3.81276E-15 17.8794 17.9634)" width="24.37" height="38.28" rx="3.85" ry="3.85"/>
   <path class="fil1" d="M14.56 41.44c7.79,0 14.05,-4.47 14.05,-12.77l0 -26.89c0,-0.79 -0.43,-1.22 -1.21,-1.22l-2.87 0c-0.8,0 -1.23,0.43 -1.23,1.22l0 26.69c0,5.11 -3.32,7.8 -8.74,7.8 -5.43,0 -8.75,-2.69 -8.75,-7.8l0 -26.69c0,-0.79 -0.43,-1.22 -1.22,-1.22l-2.87 0c-0.79,0 -1.22,0.43 -1.22,1.22l0 26.89c0,8.3 6.27,12.77 14.06,12.77z"/>
   <rect class="fil0" transform="matrix(1.1499E-14 -0.143962 0.434179 3.81276E-15 17.8794 12.2999)" width="24.37" height="38.28" rx="3.85" ry="3.85"/>
  </g>
 </g>
</svg>
