<?xml version="1.0" encoding="UTF-8"?>
<!DOCTYPE svg PUBLIC "-//W3C//DTD SVG 1.1//EN" "http://www.w3.org/Graphics/SVG/1.1/DTD/svg11.dtd">
<!-- Creator: CorelDRAW 2017 -->
<svg xmlns="http://www.w3.org/2000/svg" xml:space="preserve" width="90px" height="22px" version="1.1" style="shape-rendering:geometricPrecision; text-rendering:geometricPrecision; image-rendering:optimizeQuality; fill-rule:evenodd; clip-rule:evenodd"
viewBox="0 0 90 22"
 xmlns:xlink="http://www.w3.org/1999/xlink">
 <defs>
  <style type="text/css">
   <![CDATA[
    .fil0 {fill:white;fill-rule:nonzero}
   ]]>
  </style>
 </defs>
 <g id="Layer_x0020_1">
  <metadata id="CorelCorpID_0Corel-Layer"/>
  <g id="_993399272">
   <path class="fil0" d="M85.85 5.67l-1.97 6.35 -2.28 -6.37c-0.12,-0.31 -0.34,-0.48 -0.67,-0.48l-2.6 0c-0.43,0 -0.63,0.29 -0.48,0.7l4.23 11.13 -1.44 4.33c-0.15,0.43 0.07,0.67 0.5,0.67l2.6 0c0.34,0 0.6,-0.14 0.7,-0.48l5.19 -15.68c0.14,-0.43 -0.07,-0.67 -0.51,-0.67l-2.59 0c-0.34,0 -0.58,0.17 -0.68,0.5z"/>
   <path class="fil0" d="M71.81 4.83c-2.45,0 -4.66,1.32 -4.97,3.92 -0.03,0.41 0.21,0.63 0.6,0.63l2.35 0c0.36,0 0.48,-0.2 0.63,-0.53 0.19,-0.41 0.65,-0.7 1.39,-0.7 1.01,0 1.49,0.53 1.49,1.71l0 1.08c-0.64,-0.49 -1.59,-0.91 -3.1,-0.91 -2.11,0 -3.97,1.25 -3.97,3.75 0,2.5 1.86,3.75 3.97,3.75 1.51,0 2.46,-0.53 3.1,-1.28l0 0.34c0,0.39 0.22,0.6 0.6,0.6l2.31 0c0.39,0 0.6,-0.21 0.6,-0.6l0 -6.97c0,-3.25 -2.35,-4.79 -5,-4.79l0 0zm-0.33 10.15c-1.11,0 -1.64,-0.51 -1.64,-1.2 0,-0.7 0.53,-1.2 1.64,-1.2 1.17,0 1.82,0.45 1.82,1.2 0,0.69 -0.65,1.2 -1.82,1.2z"/>
   <path class="fil0" d="M59.29 4.83c-1.61,0 -2.78,0.54 -3.59,1.46l0 -0.52c0,-0.38 -0.21,-0.6 -0.6,-0.6l-2.4 0c-0.39,0 -0.6,0.22 -0.6,0.6l0 15.63c0,0.38 0.21,0.6 0.6,0.6l2.4 0c0.39,0 0.6,-0.22 0.6,-0.6l0 -5.33c0.81,0.92 1.98,1.46 3.59,1.46 3.14,0 5.74,-2.77 5.74,-6.35 0,-3.58 -2.6,-6.35 -5.74,-6.35zm-0.73 9.28c-1.65,0 -2.86,-1.13 -2.86,-2.93 0,-1.8 1.21,-2.93 2.86,-2.93 1.66,0 2.87,1.13 2.87,2.93 0,1.8 -1.21,2.93 -2.87,2.93z"/>
   <path class="fil0" d="M46.78 5.67l-1.97 6.35 -2.28 -6.37c-0.12,-0.31 -0.34,-0.48 -0.68,-0.48l-2.59 0c-0.44,0 -0.63,0.29 -0.48,0.7l4.23 11.13 -1.44 4.33c-0.15,0.43 0.07,0.67 0.5,0.67l2.6 0c0.33,0 0.6,-0.14 0.69,-0.48l5.2 -15.68c0.14,-0.43 -0.07,-0.67 -0.51,-0.67l-2.59 0c-0.34,0 -0.58,0.17 -0.68,0.5z"/>
   <path class="fil0" d="M37.89 3.46c0.4,0 0.62,-0.19 0.62,-0.58l0 -2.26c0,-0.38 -0.22,-0.62 -0.6,-0.62 -3.58,0 -5.24,1.97 -5.24,5.17l-1.01 0c-0.39,0 -0.6,0.22 -0.6,0.6l0 2.26c0,0.39 0.21,0.6 0.6,0.6l1.01 0 0 7.96c0,0.39 0.22,0.6 0.6,0.6l2.4 0c0.39,0 0.6,-0.21 0.6,-0.6l0 -7.96 1.64 0c0.38,0 0.6,-0.21 0.6,-0.6l0 -2.26c0,-0.38 -0.22,-0.6 -0.6,-0.6l-1.64 0c0,-1.16 0.63,-1.71 1.62,-1.71z"/>
   <path class="fil0" d="M26.73 17.19l2.4 0c0.39,0 0.61,-0.21 0.61,-0.6l0 -10.82c0,-0.38 -0.22,-0.6 -0.61,-0.6l-2.4 0c-0.39,0 -0.6,0.22 -0.6,0.6l0 10.82c0,0.39 0.21,0.6 0.6,0.6z"/>
   <path class="fil0" d="M26.73 3.73l2.4 0c0.39,0 0.61,-0.22 0.61,-0.6l0 -2.17c0,-0.38 -0.22,-0.6 -0.61,-0.6l-2.4 0c-0.39,0 -0.6,0.22 -0.6,0.6l0 2.17c0,0.38 0.21,0.6 0.6,0.6z"/>
   <path class="fil0" d="M19.95 4.83c-1.54,0 -2.56,0.6 -3.13,1.44l0 -0.5c0,-0.38 -0.21,-0.6 -0.6,-0.6l-2.4 0c-0.39,0 -0.6,0.22 -0.6,0.6l0 10.82c0,0.39 0.21,0.6 0.6,0.6l2.4 0c0.39,0 0.6,-0.21 0.6,-0.6l0 -6.42c0,-1.42 0.68,-2.02 1.76,-2.02 0.91,0 1.61,0.53 1.61,1.73l0 6.71c0,0.39 0.22,0.6 0.6,0.6l2.41 0c0.38,0 0.6,-0.21 0.6,-0.6l0 -7.02c0,-3.01 -1.61,-4.74 -3.85,-4.74z"/>
   <path class="fil0" d="M9.97 5.17l-2.4 0c-0.39,0 -0.6,0.22 -0.6,0.6l0 6.42c0,1.42 -0.68,2.02 -1.76,2.02 -0.91,0 -1.61,-0.53 -1.61,-1.73l0 -6.71c0,-0.38 -0.22,-0.6 -0.6,-0.6l-2.41 0c-0.38,0 -0.6,0.22 -0.6,0.6l0 7.02c0,3.01 1.61,4.74 3.85,4.74 1.54,0 2.56,-0.6 3.13,-1.44l0 0.5c0,0.39 0.21,0.6 0.6,0.6l2.4 0c0.39,0 0.6,-0.21 0.6,-0.6l0 -10.82c0,-0.38 -0.21,-0.6 -0.6,-0.6z"/>
  </g>
  <path class="fil0" d="M71.81 4.83c-2.45,0 -4.66,1.32 -4.97,3.92 -0.03,0.41 0.21,0.63 0.6,0.63l2.35 0c0.36,0 0.48,-0.2 0.63,-0.53 0.19,-0.41 0.65,-0.7 1.39,-0.7 1.01,0 1.49,0.53 1.49,1.71l0 1.08c-0.64,-0.49 -1.59,-0.91 -3.1,-0.91 -2.11,0 -3.97,1.25 -3.97,3.75 0,2.5 1.86,3.75 3.97,3.75 1.51,0 2.46,-0.53 3.1,-1.28l0 0.34c0,0.39 0.22,0.6 0.6,0.6l2.31 0c0.39,0 0.6,-0.21 0.6,-0.6l0 -6.97c0,-3.25 -2.35,-4.79 -5,-4.79l0 0zm-0.33 10.15c-1.11,0 -1.64,-0.51 -1.64,-1.2 0,-0.7 0.53,-1.2 1.64,-1.2 1.17,0 1.82,0.45 1.82,1.2 0,0.69 -0.65,1.2 -1.82,1.2z"/>
  <path class="fil0" d="M26.73 17.19l2.4 0c0.39,0 0.61,-0.21 0.61,-0.6l0 -10.82c0,-0.38 -0.22,-0.6 -0.61,-0.6l-2.4 0c-0.39,0 -0.6,0.22 -0.6,0.6l0 10.82c0,0.39 0.21,0.6 0.6,0.6z"/>
  <path class="fil0" d="M26.73 3.73l2.4 0c0.39,0 0.61,-0.22 0.61,-0.6l0 -2.17c0,-0.38 -0.22,-0.6 -0.61,-0.6l-2.4 0c-0.39,0 -0.6,0.22 -0.6,0.6l0 2.17c0,0.38 0.21,0.6 0.6,0.6z"/>
  <path class="fil0" d="M19.95 4.83c-1.54,0 -2.56,0.6 -3.13,1.44l0 -0.5c0,-0.38 -0.21,-0.6 -0.6,-0.6l-2.4 0c-0.39,0 -0.6,0.22 -0.6,0.6l0 10.82c0,0.39 0.21,0.6 0.6,0.6l2.4 0c0.39,0 0.6,-0.21 0.6,-0.6l0 -6.42c0,-1.42 0.68,-2.02 1.76,-2.02 0.91,0 1.61,0.53 1.61,1.73l0 6.71c0,0.39 0.22,0.6 0.6,0.6l2.41 0c0.38,0 0.6,-0.21 0.6,-0.6l0 -7.02c0,-3.01 -1.61,-4.74 -3.85,-4.74z"/>
  <path class="fil0" d="M85.85 5.67l-1.97 6.35 -2.28 -6.37c-0.12,-0.31 -0.34,-0.48 -0.67,-0.48l-2.6 0c-0.43,0 -0.63,0.29 -0.48,0.7l4.23 11.13 -1.44 4.33c-0.15,0.43 0.07,0.67 0.5,0.67l2.6 0c0.34,0 0.6,-0.14 0.7,-0.48l5.19 -15.68c0.14,-0.43 -0.07,-0.67 -0.51,-0.67l-2.59 0c-0.34,0 -0.58,0.17 -0.68,0.5z"/>
  <path class="fil0" d="M9.97 5.17l-2.4 0c-0.39,0 -0.6,0.22 -0.6,0.6l0 6.42c0,1.42 -0.68,2.02 -1.76,2.02 -0.91,0 -1.61,-0.53 -1.61,-1.73l0 -6.71c0,-0.38 -0.22,-0.6 -0.6,-0.6l-2.41 0c-0.38,0 -0.6,0.22 -0.6,0.6l0 7.02c0,3.01 1.61,4.74 3.85,4.74 1.54,0 2.56,-0.6 3.13,-1.44l0 0.5c0,0.39 0.21,0.6 0.6,0.6l2.4 0c0.39,0 0.6,-0.21 0.6,-0.6l0 -10.82c0,-0.38 -0.21,-0.6 -0.6,-0.6z"/>
 </g>
</svg>
