<?xml version="1.0" encoding="UTF-8"?>
<!DOCTYPE svg PUBLIC "-//W3C//DTD SVG 1.1//EN" "http://www.w3.org/Graphics/SVG/1.1/DTD/svg11.dtd">
<!-- Creator: CorelDRAW 2017 -->
<svg xmlns="http://www.w3.org/2000/svg" xml:space="preserve" width="772px" height="772px" version="1.1" style="shape-rendering:geometricPrecision; text-rendering:geometricPrecision; image-rendering:optimizeQuality; fill-rule:evenodd; clip-rule:evenodd"
viewBox="0 0 772 772"
 xmlns:xlink="http://www.w3.org/1999/xlink">
 <defs>
  <style type="text/css">
   <![CDATA[
    .str2 {stroke:#12E5B6;stroke-width:6.25}
    .str0 {stroke:#647CE8;stroke-width:6.25}
    .str3 {stroke:white;stroke-width:9.38;stroke-linecap:round;stroke-linejoin:round}
    .str1 {stroke:#647CE8;stroke-width:6.25;stroke-linecap:square}
    .fil2 {fill:none}
    .fil6 {fill:none;fill-rule:nonzero}
    .fil3 {fill:#1F2F7B}
    .fil1 {fill:#253377}
    .fil4 {fill:#F9F9F9}
    .fil5 {fill:white;fill-rule:nonzero}
    .fil0 {fill:url(#id0);fill-opacity:0.301961}
   ]]>
  </style>
  <linearGradient id="id0" gradientUnits="userSpaceOnUse" x1="386" y1="81.42" x2="386" y2="771.94">
   <stop offset="0" style="stop-opacity:1; stop-color:#3950B5"/>
   <stop offset="1" style="stop-opacity:1; stop-color:#162360"/>
  </linearGradient>
 </defs>
 <g id="Layer_x0020_1">
  <metadata id="CorelCorpID_0Corel-Layer"/>
  <g id="_990450112">
   <path id="Oval-2" class="fil0" d="M386 771.94c213.15,0 385.94,-172.79 385.94,-385.94 0,-213.15 -172.79,-385.94 -385.94,-385.94 -213.15,0 -385.94,172.79 -385.94,385.94 0,213.15 172.79,385.94 385.94,385.94z"/>
   <path class="fil1 str0" d="M221.94 75.06l261.97 0c13.8,0 25,11.2 25,25l0 524.61c0,13.81 -11.2,25 -25,25l-261.97 0c-13.81,0 -25,-11.19 -25,-25l0 -524.61c0,-13.8 11.19,-25 25,-25z"/>
   <line id="Line" class="fil2 str1" x1="198.56" y1="564.55" x2="507.29" y2= "564.55" />
   <line id="Line_0" class="fil2 str1" x1="325.3" y1="607.11" x2="383.8" y2= "607.11" />
   <g id="Group-3">
    <path class="fil3 str2" d="M403.21 498.96l208.62 0c6.9,0 12.5,5.6 12.5,12.5l0 180.38c0,6.91 -5.6,12.5 -12.5,12.5l-208.62 0c-6.91,0 -12.5,-5.59 -12.5,-12.5l-0.01 -180.38c0.01,-6.9 5.6,-12.5 12.51,-12.5z"/>
    <path id="Shape" class="fil2 str2" d="M449.11 498.96l0 -58.68c0,-32.27 26.28,-58.68 58.41,-58.68l0 0c32.12,0 58.4,26.41 58.4,58.68l0 58.68"/>
    <g>
     <path id="Shape_1" class="fil4" d="M505.16 586.98l0 29.34 0 -29.34zm0 0l0 0 0 0z"/>
     <path id="1" class="fil2 str2" d="M505.16 586.98l0 29.34m0 -29.34l0 0 0 0z"/>
    </g>
   </g>
   <g id="_953211696">
    <path class="fil5" d="M353.14 418.93c30.64,0 53.5,-17.45 53.5,-48.06l0 -114.93c0,-1.49 -0.86,-2.32 -2.32,-2.32l-3.89 0c-1.46,0 -2.32,0.83 -2.32,2.32l0 114.93c0,24.57 -16.99,40.01 -44.97,40.01 -27.99,0 -44.97,-15.44 -44.97,-40.01l0 -114.93c0,-1.49 -0.86,-2.32 -2.33,-2.32l-3.89 0c-1.46,0 -2.32,0.83 -2.32,2.32l0 114.93c0,30.61 22.87,48.06 53.5,48.06l0.01 0z"/>
    <line class="fil6 str3" x1="372.07" y1="291.14" x2="431.91" y2= "291.14" />
    <line class="fil6 str3" x1="372.07" y1="314.41" x2="431.91" y2= "314.41" />
   </g>
  </g>
 </g>
</svg>
